<?xml version="1.0" encoding="utf-8"?>
<!-- Generator: Adobe Illustrator 21.0.0, SVG Export Plug-In . SVG Version: 6.00 Build 0)  -->
<svg version="1.1" id="Capa_1" xmlns="http://www.w3.org/2000/svg" xmlns:xlink="http://www.w3.org/1999/xlink" x="0px" y="0px" width="24px" height="24px"
	 viewBox="0 0 100 125" style="enable-background:new 0 0 100 125;" xml:space="preserve">
<path d="M83.9,50.1L81,48.4l1.3-1.1c1.1-0.9,1.7-2.2,1.7-3.6v-8.3c0-1.6-0.9-3.1-2.2-3.9L55.5,15.7c-1.7-1-3.8-0.9-5.3,0.4
	L15.8,43.8c-1.1,0.9-1.7,2.2-1.7,3.6v8.3c0,1.6,0.9,3.1,2.2,4l2.9,1.7l-1.3,1c-1.1,0.9-1.7,2.2-1.7,3.6v8.3c0,1.6,0.9,3.1,2.3,4l0,0
	l-3.3,3.5c-1,1-1.5,2.4-1.3,3.8l1,8.2c0.2,1.6,1.2,3,2.7,3.6l26.9,12c0.8,0.4,1.7,0.6,2.6,0.6c1.7,0,3.4-0.7,4.6-1.9l29.9-30.9
	c1-1,1.4-2.4,1.3-3.8l-0.7-5.6l2.3-1.8c1.1-0.9,1.7-2.2,1.7-3.6v-8.3C86.1,52.4,85.3,51,83.9,50.1z M47.2,29.3l4.8-3.8
	c0.6-0.5,1.5-0.6,2.2-0.1L68,33.7c1.2,0.7,1.3,2.3,0.2,3.2l-4.8,3.8c-0.6,0.5-1.5,0.6-2.2,0.2l-13.8-8.4
	C46.3,31.8,46.2,30.2,47.2,29.3z M18.3,56.5c-0.3-0.1-0.4-0.4-0.4-0.8v-6.3l24.8,14.9c0.7,0.4,1.6,0.7,2.4,0.7c1,0,2-0.4,2.9-1
	l32.3-26.1v5.9c0,0.3-0.1,0.5-0.3,0.7l-33.4,27c-0.9,0.7-2.1,0.8-3,0.2L18.3,56.5z M78.9,74.6L49,105.5c-0.8,0.8-2,1-3,0.6l-26.8-12
	c-0.3-0.1-0.5-0.4-0.6-0.7l-0.7-6.2L44.3,99c0.6,0.3,1.3,0.4,1.9,0.4c1.2,0,2.4-0.5,3.3-1.4l16.3-16.8l13-10.5l0.4,3.3
	C79.2,74.1,79.1,74.4,78.9,74.6z M82.4,62.4c0,0.3-0.1,0.5-0.3,0.7l-33.4,27c-0.9,0.7-2.1,0.8-3,0.2L20.4,75.1
	C20.1,75,20,74.7,20,74.3V68l24.8,14.9c0.7,0.4,1.6,0.7,2.4,0.7c1,0,2.1-0.3,2.9-1l32.4-26.1L82.4,62.4L82.4,62.4z"/>
</svg>
